<?xml version="1.0" encoding="UTF-8"?>
<svg xmlns="http://www.w3.org/2000/svg" xmlns:xlink="http://www.w3.org/1999/xlink" width="32px" height="32px" viewBox="0 0 32 32" version="1.1">
<defs>
<clipPath id="clip1">
  <path d="M 0.00390625 16 L 14 16 L 14 17 L 0.00390625 17 Z M 0.00390625 16 "/>
</clipPath>
<clipPath id="clip2">
  <path d="M 18 16 L 31.996094 16 L 31.996094 17 L 18 17 Z M 18 16 "/>
</clipPath>
</defs>
<g id="surface1">
<path style="fill:none;stroke-width:12;stroke-linecap:butt;stroke-linejoin:round;stroke:rgb(100%,0%,0%);stroke-opacity:1;stroke-miterlimit:10;" d="M 111.741815 255.2983 C 111.741815 170.158839 180.236847 101.170658 264.737813 101.170658 C 305.303461 101.170658 344.184274 117.381979 372.891274 146.322191 C 401.533473 175.202361 417.66901 214.409744 417.66901 255.2983 C 417.66901 340.437761 349.173978 409.425943 264.737813 409.425943 C 180.236847 409.425943 111.741815 340.437761 111.741815 255.2983 Z M 111.741815 255.2983 " transform="matrix(0.0602804,0,0,0.0650587,0.0024427,0)"/>
<g clip-path="url(#clip1)" clip-rule="nonzero">
<path style="fill:none;stroke-width:4;stroke-linecap:butt;stroke-linejoin:round;stroke:rgb(100%,0%,0%);stroke-opacity:1;stroke-miterlimit:10;" d="M 0.024279 257.639936 L 229.421075 254.697881 " transform="matrix(0.0602804,0,0,0.0650587,0.0024427,0)"/>
</g>
<path style="fill:none;stroke-width:4;stroke-linecap:butt;stroke-linejoin:round;stroke:rgb(100%,0%,0%);stroke-opacity:1;stroke-miterlimit:10;" d="M 262.340163 0 L 264.0898 216.451169 " transform="matrix(0.0602804,0,0,0.0650587,0.0024427,0)"/>
<g clip-path="url(#clip2)" clip-rule="nonzero">
<path style="fill:none;stroke-width:4;stroke-linecap:butt;stroke-linejoin:round;stroke:rgb(100%,0%,0%);stroke-opacity:1;stroke-miterlimit:10;" d="M 528.220122 256.499139 L 309.450748 256.499139 " transform="matrix(0.0602804,0,0,0.0650587,0.0024427,0)"/>
</g>
<path style="fill:none;stroke-width:4;stroke-linecap:butt;stroke-linejoin:round;stroke:rgb(100%,0%,0%);stroke-opacity:1;stroke-miterlimit:10;" d="M 265.904238 490.602636 L 265.256224 297.687905 " transform="matrix(0.0602804,0,0,0.0650587,0.0024427,0)"/>
<path style="fill:none;stroke-width:12;stroke-linecap:butt;stroke-linejoin:round;stroke:rgb(100%,0%,0%);stroke-opacity:1;stroke-miterlimit:10;" d="M 181.144066 255.898719 C 181.144066 210.747186 219.117659 174.121606 265.904238 174.121606 C 288.325506 174.121606 309.904357 182.707603 325.780689 198.078338 C 341.657021 213.389031 350.599608 234.16354 350.599608 255.898719 C 350.599608 301.050253 312.690816 337.615791 265.904238 337.615791 C 219.117659 337.615791 181.144066 301.050253 181.144066 255.898719 Z M 181.144066 255.898719 " transform="matrix(0.0602804,0,0,0.0650587,0.0024427,0)"/>
<path style="fill:none;stroke-width:4;stroke-linecap:butt;stroke-linejoin:round;stroke:rgb(100%,0%,0%);stroke-opacity:1;stroke-miterlimit:10;" d="M 176.478368 175.322445 L 252.943967 239.987607 " transform="matrix(0.0602804,0,0,0.0650587,0.0024427,0)"/>
<path style="fill:none;stroke-width:4;stroke-linecap:butt;stroke-linejoin:round;stroke:rgb(100%,0%,0%);stroke-opacity:1;stroke-miterlimit:10;" d="M 356.496532 168.237497 L 282.29898 247.012513 " transform="matrix(0.0602804,0,0,0.0650587,0.0024427,0)"/>
<path style="fill:none;stroke-width:4;stroke-linecap:butt;stroke-linejoin:round;stroke:rgb(100%,0%,0%);stroke-opacity:1;stroke-miterlimit:10;" d="M 350.599608 341.158265 L 283.530206 271.74979 " transform="matrix(0.0602804,0,0,0.0650587,0.0024427,0)"/>
<path style="fill:none;stroke-width:4;stroke-linecap:butt;stroke-linejoin:round;stroke:rgb(100%,0%,0%);stroke-opacity:1;stroke-miterlimit:10;" d="M 172.914294 341.158265 L 252.943967 267.066519 " transform="matrix(0.0602804,0,0,0.0650587,0.0024427,0)"/>
</g>
</svg>
