<?xml version="1.0" encoding="UTF-8"?>
<svg xmlns="http://www.w3.org/2000/svg" xmlns:xlink="http://www.w3.org/1999/xlink" width="64px" height="64px" viewBox="0 0 64 64" version="1.1">
<defs>
<clipPath id="clip1">
  <path d="M 0.00390625 32 L 28 32 L 28 34 L 0.00390625 34 Z M 0.00390625 32 "/>
</clipPath>
<clipPath id="clip2">
  <path d="M 37 33 L 63.996094 33 L 63.996094 34 L 37 34 Z M 37 33 "/>
</clipPath>
</defs>
<g id="surface1">
<path style="fill:none;stroke-width:12;stroke-linecap:butt;stroke-linejoin:round;stroke:rgb(100%,0%,0%);stroke-opacity:1;stroke-miterlimit:10;" d="M 111.774215 255.2983 C 111.774215 170.158839 180.236847 101.170658 264.705413 101.170658 C 305.271061 101.170658 344.184274 117.412 372.858874 146.322191 C 401.533473 175.202361 417.66901 214.409744 417.66901 255.2983 C 417.66901 340.40774 349.173978 409.425943 264.705413 409.425943 C 180.236847 409.425943 111.774215 340.40774 111.774215 255.2983 Z M 111.774215 255.2983 " transform="matrix(0.120561,0,0,0.130117,0.00488541,0)"/>
<g clip-path="url(#clip1)" clip-rule="nonzero">
<path style="fill:none;stroke-width:4;stroke-linecap:butt;stroke-linejoin:round;stroke:rgb(100%,0%,0%);stroke-opacity:1;stroke-miterlimit:10;" d="M -0.0081217 257.639936 L 229.421075 254.727902 " transform="matrix(0.120561,0,0,0.130117,0.00488541,0)"/>
</g>
<path style="fill:none;stroke-width:4;stroke-linecap:butt;stroke-linejoin:round;stroke:rgb(100%,0%,0%);stroke-opacity:1;stroke-miterlimit:10;" d="M 262.340163 0 L 264.1222 216.48119 " transform="matrix(0.120561,0,0,0.130117,0.00488541,0)"/>
<g clip-path="url(#clip2)" clip-rule="nonzero">
<path style="fill:none;stroke-width:4;stroke-linecap:butt;stroke-linejoin:round;stroke:rgb(100%,0%,0%);stroke-opacity:1;stroke-miterlimit:10;" d="M 528.220122 256.469118 L 309.418347 256.469118 " transform="matrix(0.120561,0,0,0.130117,0.00488541,0)"/>
</g>
<path style="fill:none;stroke-width:4;stroke-linecap:butt;stroke-linejoin:round;stroke:rgb(100%,0%,0%);stroke-opacity:1;stroke-miterlimit:10;" d="M 265.871837 490.602636 L 265.288625 297.687905 " transform="matrix(0.120561,0,0,0.130117,0.00488541,0)"/>
<path style="fill:none;stroke-width:12;stroke-linecap:butt;stroke-linejoin:round;stroke:rgb(100%,0%,0%);stroke-opacity:1;stroke-miterlimit:10;" d="M 181.176466 255.868698 C 181.176466 210.717165 219.085259 174.121606 265.871837 174.121606 C 288.357907 174.121606 309.904357 182.737624 325.780689 198.048317 C 341.657021 213.389031 350.599608 234.193561 350.599608 255.868698 C 350.599608 301.020232 312.658415 337.645812 265.871837 337.645812 C 219.085259 337.645812 181.176466 301.020232 181.176466 255.868698 Z M 181.176466 255.868698 " transform="matrix(0.120561,0,0,0.130117,0.00488541,0)"/>
<path style="fill:none;stroke-width:4;stroke-linecap:butt;stroke-linejoin:round;stroke:rgb(100%,0%,0%);stroke-opacity:1;stroke-miterlimit:10;" d="M 176.478368 175.292424 L 252.943967 239.987607 " transform="matrix(0.120561,0,0,0.130117,0.00488541,0)"/>
<path style="fill:none;stroke-width:4;stroke-linecap:butt;stroke-linejoin:round;stroke:rgb(100%,0%,0%);stroke-opacity:1;stroke-miterlimit:10;" d="M 356.464131 168.237497 L 282.331381 247.042534 " transform="matrix(0.120561,0,0,0.130117,0.00488541,0)"/>
<path style="fill:none;stroke-width:4;stroke-linecap:butt;stroke-linejoin:round;stroke:rgb(100%,0%,0%);stroke-opacity:1;stroke-miterlimit:10;" d="M 350.599608 341.188286 L 283.530206 271.74979 " transform="matrix(0.120561,0,0,0.130117,0.00488541,0)"/>
<path style="fill:none;stroke-width:4;stroke-linecap:butt;stroke-linejoin:round;stroke:rgb(100%,0%,0%);stroke-opacity:1;stroke-miterlimit:10;" d="M 172.946694 341.188286 L 252.943967 267.066519 " transform="matrix(0.120561,0,0,0.130117,0.00488541,0)"/>
</g>
</svg>
